G04 EAGLE Gerber RS-274X export*
G75*
%MOMM*%
%FSLAX34Y34*%
%LPD*%
%INSilkscreen Top*%
%IPPOS*%
%AMOC8*
5,1,8,0,0,1.08239X$1,22.5*%
G01*
%ADD10C,0.101600*%


D10*
X381518Y476726D02*
X384764Y476726D01*
X384877Y476728D01*
X384990Y476734D01*
X385103Y476744D01*
X385216Y476758D01*
X385328Y476775D01*
X385439Y476797D01*
X385549Y476822D01*
X385659Y476852D01*
X385767Y476885D01*
X385874Y476922D01*
X385980Y476962D01*
X386084Y477007D01*
X386187Y477055D01*
X386288Y477106D01*
X386387Y477161D01*
X386484Y477219D01*
X386579Y477281D01*
X386672Y477346D01*
X386762Y477414D01*
X386850Y477485D01*
X386936Y477560D01*
X387019Y477637D01*
X387099Y477717D01*
X387176Y477800D01*
X387251Y477886D01*
X387322Y477974D01*
X387390Y478064D01*
X387455Y478157D01*
X387517Y478252D01*
X387575Y478349D01*
X387630Y478448D01*
X387681Y478549D01*
X387729Y478652D01*
X387774Y478756D01*
X387814Y478862D01*
X387851Y478969D01*
X387884Y479077D01*
X387914Y479187D01*
X387939Y479297D01*
X387961Y479408D01*
X387978Y479520D01*
X387992Y479633D01*
X388002Y479746D01*
X388008Y479859D01*
X388010Y479972D01*
X388008Y480085D01*
X388002Y480198D01*
X387992Y480311D01*
X387978Y480424D01*
X387961Y480536D01*
X387939Y480647D01*
X387914Y480757D01*
X387884Y480867D01*
X387851Y480975D01*
X387814Y481082D01*
X387774Y481188D01*
X387729Y481292D01*
X387681Y481395D01*
X387630Y481496D01*
X387575Y481595D01*
X387517Y481692D01*
X387455Y481787D01*
X387390Y481880D01*
X387322Y481970D01*
X387251Y482058D01*
X387176Y482144D01*
X387099Y482227D01*
X387019Y482307D01*
X386936Y482384D01*
X386850Y482459D01*
X386762Y482530D01*
X386672Y482598D01*
X386579Y482663D01*
X386484Y482725D01*
X386387Y482783D01*
X386288Y482838D01*
X386187Y482889D01*
X386084Y482937D01*
X385980Y482982D01*
X385874Y483022D01*
X385767Y483059D01*
X385659Y483092D01*
X385549Y483122D01*
X385439Y483147D01*
X385328Y483169D01*
X385216Y483186D01*
X385103Y483200D01*
X384990Y483210D01*
X384877Y483216D01*
X384764Y483218D01*
X385413Y488410D02*
X381518Y488410D01*
X385413Y488410D02*
X385514Y488408D01*
X385614Y488402D01*
X385714Y488392D01*
X385814Y488379D01*
X385913Y488361D01*
X386012Y488340D01*
X386109Y488315D01*
X386206Y488286D01*
X386301Y488253D01*
X386395Y488217D01*
X386487Y488177D01*
X386578Y488134D01*
X386667Y488087D01*
X386754Y488037D01*
X386840Y487983D01*
X386923Y487926D01*
X387003Y487866D01*
X387082Y487803D01*
X387158Y487736D01*
X387231Y487667D01*
X387301Y487595D01*
X387369Y487521D01*
X387434Y487444D01*
X387495Y487364D01*
X387554Y487282D01*
X387609Y487198D01*
X387661Y487112D01*
X387710Y487024D01*
X387755Y486934D01*
X387797Y486842D01*
X387835Y486749D01*
X387869Y486654D01*
X387900Y486559D01*
X387927Y486462D01*
X387950Y486364D01*
X387970Y486265D01*
X387985Y486165D01*
X387997Y486065D01*
X388005Y485965D01*
X388009Y485864D01*
X388009Y485764D01*
X388005Y485663D01*
X387997Y485563D01*
X387985Y485463D01*
X387970Y485363D01*
X387950Y485264D01*
X387927Y485166D01*
X387900Y485069D01*
X387869Y484974D01*
X387835Y484879D01*
X387797Y484786D01*
X387755Y484694D01*
X387710Y484604D01*
X387661Y484516D01*
X387609Y484430D01*
X387554Y484346D01*
X387495Y484264D01*
X387434Y484184D01*
X387369Y484107D01*
X387301Y484033D01*
X387231Y483961D01*
X387158Y483892D01*
X387082Y483825D01*
X387003Y483762D01*
X386923Y483702D01*
X386840Y483645D01*
X386754Y483591D01*
X386667Y483541D01*
X386578Y483494D01*
X386487Y483451D01*
X386395Y483411D01*
X386301Y483375D01*
X386206Y483342D01*
X386109Y483313D01*
X386012Y483288D01*
X385913Y483267D01*
X385814Y483249D01*
X385714Y483236D01*
X385614Y483226D01*
X385514Y483220D01*
X385413Y483218D01*
X385413Y483217D02*
X382817Y483217D01*
X392299Y488410D02*
X396194Y476726D01*
X400089Y488410D01*
X404378Y476726D02*
X407624Y476726D01*
X407737Y476728D01*
X407850Y476734D01*
X407963Y476744D01*
X408076Y476758D01*
X408188Y476775D01*
X408299Y476797D01*
X408409Y476822D01*
X408519Y476852D01*
X408627Y476885D01*
X408734Y476922D01*
X408840Y476962D01*
X408944Y477007D01*
X409047Y477055D01*
X409148Y477106D01*
X409247Y477161D01*
X409344Y477219D01*
X409439Y477281D01*
X409532Y477346D01*
X409622Y477414D01*
X409710Y477485D01*
X409796Y477560D01*
X409879Y477637D01*
X409959Y477717D01*
X410036Y477800D01*
X410111Y477886D01*
X410182Y477974D01*
X410250Y478064D01*
X410315Y478157D01*
X410377Y478252D01*
X410435Y478349D01*
X410490Y478448D01*
X410541Y478549D01*
X410589Y478652D01*
X410634Y478756D01*
X410674Y478862D01*
X410711Y478969D01*
X410744Y479077D01*
X410774Y479187D01*
X410799Y479297D01*
X410821Y479408D01*
X410838Y479520D01*
X410852Y479633D01*
X410862Y479746D01*
X410868Y479859D01*
X410870Y479972D01*
X410868Y480085D01*
X410862Y480198D01*
X410852Y480311D01*
X410838Y480424D01*
X410821Y480536D01*
X410799Y480647D01*
X410774Y480757D01*
X410744Y480867D01*
X410711Y480975D01*
X410674Y481082D01*
X410634Y481188D01*
X410589Y481292D01*
X410541Y481395D01*
X410490Y481496D01*
X410435Y481595D01*
X410377Y481692D01*
X410315Y481787D01*
X410250Y481880D01*
X410182Y481970D01*
X410111Y482058D01*
X410036Y482144D01*
X409959Y482227D01*
X409879Y482307D01*
X409796Y482384D01*
X409710Y482459D01*
X409622Y482530D01*
X409532Y482598D01*
X409439Y482663D01*
X409344Y482725D01*
X409247Y482783D01*
X409148Y482838D01*
X409047Y482889D01*
X408944Y482937D01*
X408840Y482982D01*
X408734Y483022D01*
X408627Y483059D01*
X408519Y483092D01*
X408409Y483122D01*
X408299Y483147D01*
X408188Y483169D01*
X408076Y483186D01*
X407963Y483200D01*
X407850Y483210D01*
X407737Y483216D01*
X407624Y483218D01*
X408273Y488410D02*
X404378Y488410D01*
X408273Y488410D02*
X408374Y488408D01*
X408474Y488402D01*
X408574Y488392D01*
X408674Y488379D01*
X408773Y488361D01*
X408872Y488340D01*
X408969Y488315D01*
X409066Y488286D01*
X409161Y488253D01*
X409255Y488217D01*
X409347Y488177D01*
X409438Y488134D01*
X409527Y488087D01*
X409614Y488037D01*
X409700Y487983D01*
X409783Y487926D01*
X409863Y487866D01*
X409942Y487803D01*
X410018Y487736D01*
X410091Y487667D01*
X410161Y487595D01*
X410229Y487521D01*
X410294Y487444D01*
X410355Y487364D01*
X410414Y487282D01*
X410469Y487198D01*
X410521Y487112D01*
X410570Y487024D01*
X410615Y486934D01*
X410657Y486842D01*
X410695Y486749D01*
X410729Y486654D01*
X410760Y486559D01*
X410787Y486462D01*
X410810Y486364D01*
X410830Y486265D01*
X410845Y486165D01*
X410857Y486065D01*
X410865Y485965D01*
X410869Y485864D01*
X410869Y485764D01*
X410865Y485663D01*
X410857Y485563D01*
X410845Y485463D01*
X410830Y485363D01*
X410810Y485264D01*
X410787Y485166D01*
X410760Y485069D01*
X410729Y484974D01*
X410695Y484879D01*
X410657Y484786D01*
X410615Y484694D01*
X410570Y484604D01*
X410521Y484516D01*
X410469Y484430D01*
X410414Y484346D01*
X410355Y484264D01*
X410294Y484184D01*
X410229Y484107D01*
X410161Y484033D01*
X410091Y483961D01*
X410018Y483892D01*
X409942Y483825D01*
X409863Y483762D01*
X409783Y483702D01*
X409700Y483645D01*
X409614Y483591D01*
X409527Y483541D01*
X409438Y483494D01*
X409347Y483451D01*
X409255Y483411D01*
X409161Y483375D01*
X409066Y483342D01*
X408969Y483313D01*
X408872Y483288D01*
X408773Y483267D01*
X408674Y483249D01*
X408574Y483236D01*
X408474Y483226D01*
X408374Y483220D01*
X408273Y483218D01*
X408273Y483217D02*
X405677Y483217D01*
X497242Y334770D02*
X497242Y331524D01*
X497242Y334770D02*
X497240Y334883D01*
X497234Y334996D01*
X497224Y335109D01*
X497210Y335222D01*
X497193Y335334D01*
X497171Y335445D01*
X497146Y335555D01*
X497116Y335665D01*
X497083Y335773D01*
X497046Y335880D01*
X497006Y335986D01*
X496961Y336090D01*
X496913Y336193D01*
X496862Y336294D01*
X496807Y336393D01*
X496749Y336490D01*
X496687Y336585D01*
X496622Y336678D01*
X496554Y336768D01*
X496483Y336856D01*
X496408Y336942D01*
X496331Y337025D01*
X496251Y337105D01*
X496168Y337182D01*
X496082Y337257D01*
X495994Y337328D01*
X495904Y337396D01*
X495811Y337461D01*
X495716Y337523D01*
X495619Y337581D01*
X495520Y337636D01*
X495419Y337687D01*
X495316Y337735D01*
X495212Y337780D01*
X495106Y337820D01*
X494999Y337857D01*
X494891Y337890D01*
X494781Y337920D01*
X494671Y337945D01*
X494560Y337967D01*
X494448Y337984D01*
X494335Y337998D01*
X494222Y338008D01*
X494109Y338014D01*
X493996Y338016D01*
X493883Y338014D01*
X493770Y338008D01*
X493657Y337998D01*
X493544Y337984D01*
X493432Y337967D01*
X493321Y337945D01*
X493211Y337920D01*
X493101Y337890D01*
X492993Y337857D01*
X492886Y337820D01*
X492780Y337780D01*
X492676Y337735D01*
X492573Y337687D01*
X492472Y337636D01*
X492373Y337581D01*
X492276Y337523D01*
X492181Y337461D01*
X492088Y337396D01*
X491998Y337328D01*
X491910Y337257D01*
X491824Y337182D01*
X491741Y337105D01*
X491661Y337025D01*
X491584Y336942D01*
X491509Y336856D01*
X491438Y336768D01*
X491370Y336678D01*
X491305Y336585D01*
X491243Y336490D01*
X491185Y336393D01*
X491130Y336294D01*
X491079Y336193D01*
X491031Y336090D01*
X490986Y335986D01*
X490946Y335880D01*
X490909Y335773D01*
X490876Y335665D01*
X490846Y335555D01*
X490821Y335445D01*
X490799Y335334D01*
X490782Y335222D01*
X490768Y335109D01*
X490758Y334996D01*
X490752Y334883D01*
X490750Y334770D01*
X485558Y335419D02*
X485558Y331524D01*
X485558Y335419D02*
X485560Y335520D01*
X485566Y335620D01*
X485576Y335720D01*
X485589Y335820D01*
X485607Y335919D01*
X485628Y336018D01*
X485653Y336115D01*
X485682Y336212D01*
X485715Y336307D01*
X485751Y336401D01*
X485791Y336493D01*
X485834Y336584D01*
X485881Y336673D01*
X485931Y336760D01*
X485985Y336846D01*
X486042Y336929D01*
X486102Y337009D01*
X486165Y337088D01*
X486232Y337164D01*
X486301Y337237D01*
X486373Y337307D01*
X486447Y337375D01*
X486524Y337440D01*
X486604Y337501D01*
X486686Y337560D01*
X486770Y337615D01*
X486856Y337667D01*
X486944Y337716D01*
X487034Y337761D01*
X487126Y337803D01*
X487219Y337841D01*
X487314Y337875D01*
X487409Y337906D01*
X487506Y337933D01*
X487604Y337956D01*
X487703Y337976D01*
X487803Y337991D01*
X487903Y338003D01*
X488003Y338011D01*
X488104Y338015D01*
X488204Y338015D01*
X488305Y338011D01*
X488405Y338003D01*
X488505Y337991D01*
X488605Y337976D01*
X488704Y337956D01*
X488802Y337933D01*
X488899Y337906D01*
X488994Y337875D01*
X489089Y337841D01*
X489182Y337803D01*
X489274Y337761D01*
X489364Y337716D01*
X489452Y337667D01*
X489538Y337615D01*
X489622Y337560D01*
X489704Y337501D01*
X489784Y337440D01*
X489861Y337375D01*
X489935Y337307D01*
X490007Y337237D01*
X490076Y337164D01*
X490143Y337088D01*
X490206Y337009D01*
X490266Y336929D01*
X490323Y336846D01*
X490377Y336760D01*
X490427Y336673D01*
X490474Y336584D01*
X490517Y336493D01*
X490557Y336401D01*
X490593Y336307D01*
X490626Y336212D01*
X490655Y336115D01*
X490680Y336018D01*
X490701Y335919D01*
X490719Y335820D01*
X490732Y335720D01*
X490742Y335620D01*
X490748Y335520D01*
X490750Y335419D01*
X490751Y335419D02*
X490751Y332823D01*
X485558Y342305D02*
X497242Y346200D01*
X485558Y350095D01*
X497242Y354384D02*
X497242Y357630D01*
X497240Y357743D01*
X497234Y357856D01*
X497224Y357969D01*
X497210Y358082D01*
X497193Y358194D01*
X497171Y358305D01*
X497146Y358415D01*
X497116Y358525D01*
X497083Y358633D01*
X497046Y358740D01*
X497006Y358846D01*
X496961Y358950D01*
X496913Y359053D01*
X496862Y359154D01*
X496807Y359253D01*
X496749Y359350D01*
X496687Y359445D01*
X496622Y359538D01*
X496554Y359628D01*
X496483Y359716D01*
X496408Y359802D01*
X496331Y359885D01*
X496251Y359965D01*
X496168Y360042D01*
X496082Y360117D01*
X495994Y360188D01*
X495904Y360256D01*
X495811Y360321D01*
X495716Y360383D01*
X495619Y360441D01*
X495520Y360496D01*
X495419Y360547D01*
X495316Y360595D01*
X495212Y360640D01*
X495106Y360680D01*
X494999Y360717D01*
X494891Y360750D01*
X494781Y360780D01*
X494671Y360805D01*
X494560Y360827D01*
X494448Y360844D01*
X494335Y360858D01*
X494222Y360868D01*
X494109Y360874D01*
X493996Y360876D01*
X493883Y360874D01*
X493770Y360868D01*
X493657Y360858D01*
X493544Y360844D01*
X493432Y360827D01*
X493321Y360805D01*
X493211Y360780D01*
X493101Y360750D01*
X492993Y360717D01*
X492886Y360680D01*
X492780Y360640D01*
X492676Y360595D01*
X492573Y360547D01*
X492472Y360496D01*
X492373Y360441D01*
X492276Y360383D01*
X492181Y360321D01*
X492088Y360256D01*
X491998Y360188D01*
X491910Y360117D01*
X491824Y360042D01*
X491741Y359965D01*
X491661Y359885D01*
X491584Y359802D01*
X491509Y359716D01*
X491438Y359628D01*
X491370Y359538D01*
X491305Y359445D01*
X491243Y359350D01*
X491185Y359253D01*
X491130Y359154D01*
X491079Y359053D01*
X491031Y358950D01*
X490986Y358846D01*
X490946Y358740D01*
X490909Y358633D01*
X490876Y358525D01*
X490846Y358415D01*
X490821Y358305D01*
X490799Y358194D01*
X490782Y358082D01*
X490768Y357969D01*
X490758Y357856D01*
X490752Y357743D01*
X490750Y357630D01*
X485558Y358279D02*
X485558Y354384D01*
X485558Y358279D02*
X485560Y358380D01*
X485566Y358480D01*
X485576Y358580D01*
X485589Y358680D01*
X485607Y358779D01*
X485628Y358878D01*
X485653Y358975D01*
X485682Y359072D01*
X485715Y359167D01*
X485751Y359261D01*
X485791Y359353D01*
X485834Y359444D01*
X485881Y359533D01*
X485931Y359620D01*
X485985Y359706D01*
X486042Y359789D01*
X486102Y359869D01*
X486165Y359948D01*
X486232Y360024D01*
X486301Y360097D01*
X486373Y360167D01*
X486447Y360235D01*
X486524Y360300D01*
X486604Y360361D01*
X486686Y360420D01*
X486770Y360475D01*
X486856Y360527D01*
X486944Y360576D01*
X487034Y360621D01*
X487126Y360663D01*
X487219Y360701D01*
X487314Y360735D01*
X487409Y360766D01*
X487506Y360793D01*
X487604Y360816D01*
X487703Y360836D01*
X487803Y360851D01*
X487903Y360863D01*
X488003Y360871D01*
X488104Y360875D01*
X488204Y360875D01*
X488305Y360871D01*
X488405Y360863D01*
X488505Y360851D01*
X488605Y360836D01*
X488704Y360816D01*
X488802Y360793D01*
X488899Y360766D01*
X488994Y360735D01*
X489089Y360701D01*
X489182Y360663D01*
X489274Y360621D01*
X489364Y360576D01*
X489452Y360527D01*
X489538Y360475D01*
X489622Y360420D01*
X489704Y360361D01*
X489784Y360300D01*
X489861Y360235D01*
X489935Y360167D01*
X490007Y360097D01*
X490076Y360024D01*
X490143Y359948D01*
X490206Y359869D01*
X490266Y359789D01*
X490323Y359706D01*
X490377Y359620D01*
X490427Y359533D01*
X490474Y359444D01*
X490517Y359353D01*
X490557Y359261D01*
X490593Y359167D01*
X490626Y359072D01*
X490655Y358975D01*
X490680Y358878D01*
X490701Y358779D01*
X490719Y358680D01*
X490732Y358580D01*
X490742Y358480D01*
X490748Y358380D01*
X490750Y358279D01*
X490751Y358279D02*
X490751Y355683D01*
X385272Y203482D02*
X382026Y203482D01*
X385272Y203482D02*
X385385Y203484D01*
X385498Y203490D01*
X385611Y203500D01*
X385724Y203514D01*
X385836Y203531D01*
X385947Y203553D01*
X386057Y203578D01*
X386167Y203608D01*
X386275Y203641D01*
X386382Y203678D01*
X386488Y203718D01*
X386592Y203763D01*
X386695Y203811D01*
X386796Y203862D01*
X386895Y203917D01*
X386992Y203975D01*
X387087Y204037D01*
X387180Y204102D01*
X387270Y204170D01*
X387358Y204241D01*
X387444Y204316D01*
X387527Y204393D01*
X387607Y204473D01*
X387684Y204556D01*
X387759Y204642D01*
X387830Y204730D01*
X387898Y204820D01*
X387963Y204913D01*
X388025Y205008D01*
X388083Y205105D01*
X388138Y205204D01*
X388189Y205305D01*
X388237Y205408D01*
X388282Y205512D01*
X388322Y205618D01*
X388359Y205725D01*
X388392Y205833D01*
X388422Y205943D01*
X388447Y206053D01*
X388469Y206164D01*
X388486Y206276D01*
X388500Y206389D01*
X388510Y206502D01*
X388516Y206615D01*
X388518Y206728D01*
X388516Y206841D01*
X388510Y206954D01*
X388500Y207067D01*
X388486Y207180D01*
X388469Y207292D01*
X388447Y207403D01*
X388422Y207513D01*
X388392Y207623D01*
X388359Y207731D01*
X388322Y207838D01*
X388282Y207944D01*
X388237Y208048D01*
X388189Y208151D01*
X388138Y208252D01*
X388083Y208351D01*
X388025Y208448D01*
X387963Y208543D01*
X387898Y208636D01*
X387830Y208726D01*
X387759Y208814D01*
X387684Y208900D01*
X387607Y208983D01*
X387527Y209063D01*
X387444Y209140D01*
X387358Y209215D01*
X387270Y209286D01*
X387180Y209354D01*
X387087Y209419D01*
X386992Y209481D01*
X386895Y209539D01*
X386796Y209594D01*
X386695Y209645D01*
X386592Y209693D01*
X386488Y209738D01*
X386382Y209778D01*
X386275Y209815D01*
X386167Y209848D01*
X386057Y209878D01*
X385947Y209903D01*
X385836Y209925D01*
X385724Y209942D01*
X385611Y209956D01*
X385498Y209966D01*
X385385Y209972D01*
X385272Y209974D01*
X385921Y215166D02*
X382026Y215166D01*
X385921Y215166D02*
X386022Y215164D01*
X386122Y215158D01*
X386222Y215148D01*
X386322Y215135D01*
X386421Y215117D01*
X386520Y215096D01*
X386617Y215071D01*
X386714Y215042D01*
X386809Y215009D01*
X386903Y214973D01*
X386995Y214933D01*
X387086Y214890D01*
X387175Y214843D01*
X387262Y214793D01*
X387348Y214739D01*
X387431Y214682D01*
X387511Y214622D01*
X387590Y214559D01*
X387666Y214492D01*
X387739Y214423D01*
X387809Y214351D01*
X387877Y214277D01*
X387942Y214200D01*
X388003Y214120D01*
X388062Y214038D01*
X388117Y213954D01*
X388169Y213868D01*
X388218Y213780D01*
X388263Y213690D01*
X388305Y213598D01*
X388343Y213505D01*
X388377Y213410D01*
X388408Y213315D01*
X388435Y213218D01*
X388458Y213120D01*
X388478Y213021D01*
X388493Y212921D01*
X388505Y212821D01*
X388513Y212721D01*
X388517Y212620D01*
X388517Y212520D01*
X388513Y212419D01*
X388505Y212319D01*
X388493Y212219D01*
X388478Y212119D01*
X388458Y212020D01*
X388435Y211922D01*
X388408Y211825D01*
X388377Y211730D01*
X388343Y211635D01*
X388305Y211542D01*
X388263Y211450D01*
X388218Y211360D01*
X388169Y211272D01*
X388117Y211186D01*
X388062Y211102D01*
X388003Y211020D01*
X387942Y210940D01*
X387877Y210863D01*
X387809Y210789D01*
X387739Y210717D01*
X387666Y210648D01*
X387590Y210581D01*
X387511Y210518D01*
X387431Y210458D01*
X387348Y210401D01*
X387262Y210347D01*
X387175Y210297D01*
X387086Y210250D01*
X386995Y210207D01*
X386903Y210167D01*
X386809Y210131D01*
X386714Y210098D01*
X386617Y210069D01*
X386520Y210044D01*
X386421Y210023D01*
X386322Y210005D01*
X386222Y209992D01*
X386122Y209982D01*
X386022Y209976D01*
X385921Y209974D01*
X385921Y209973D02*
X383325Y209973D01*
X392807Y215166D02*
X396702Y203482D01*
X400597Y215166D01*
X404886Y203482D02*
X408132Y203482D01*
X408245Y203484D01*
X408358Y203490D01*
X408471Y203500D01*
X408584Y203514D01*
X408696Y203531D01*
X408807Y203553D01*
X408917Y203578D01*
X409027Y203608D01*
X409135Y203641D01*
X409242Y203678D01*
X409348Y203718D01*
X409452Y203763D01*
X409555Y203811D01*
X409656Y203862D01*
X409755Y203917D01*
X409852Y203975D01*
X409947Y204037D01*
X410040Y204102D01*
X410130Y204170D01*
X410218Y204241D01*
X410304Y204316D01*
X410387Y204393D01*
X410467Y204473D01*
X410544Y204556D01*
X410619Y204642D01*
X410690Y204730D01*
X410758Y204820D01*
X410823Y204913D01*
X410885Y205008D01*
X410943Y205105D01*
X410998Y205204D01*
X411049Y205305D01*
X411097Y205408D01*
X411142Y205512D01*
X411182Y205618D01*
X411219Y205725D01*
X411252Y205833D01*
X411282Y205943D01*
X411307Y206053D01*
X411329Y206164D01*
X411346Y206276D01*
X411360Y206389D01*
X411370Y206502D01*
X411376Y206615D01*
X411378Y206728D01*
X411376Y206841D01*
X411370Y206954D01*
X411360Y207067D01*
X411346Y207180D01*
X411329Y207292D01*
X411307Y207403D01*
X411282Y207513D01*
X411252Y207623D01*
X411219Y207731D01*
X411182Y207838D01*
X411142Y207944D01*
X411097Y208048D01*
X411049Y208151D01*
X410998Y208252D01*
X410943Y208351D01*
X410885Y208448D01*
X410823Y208543D01*
X410758Y208636D01*
X410690Y208726D01*
X410619Y208814D01*
X410544Y208900D01*
X410467Y208983D01*
X410387Y209063D01*
X410304Y209140D01*
X410218Y209215D01*
X410130Y209286D01*
X410040Y209354D01*
X409947Y209419D01*
X409852Y209481D01*
X409755Y209539D01*
X409656Y209594D01*
X409555Y209645D01*
X409452Y209693D01*
X409348Y209738D01*
X409242Y209778D01*
X409135Y209815D01*
X409027Y209848D01*
X408917Y209878D01*
X408807Y209903D01*
X408696Y209925D01*
X408584Y209942D01*
X408471Y209956D01*
X408358Y209966D01*
X408245Y209972D01*
X408132Y209974D01*
X408781Y215166D02*
X404886Y215166D01*
X408781Y215166D02*
X408882Y215164D01*
X408982Y215158D01*
X409082Y215148D01*
X409182Y215135D01*
X409281Y215117D01*
X409380Y215096D01*
X409477Y215071D01*
X409574Y215042D01*
X409669Y215009D01*
X409763Y214973D01*
X409855Y214933D01*
X409946Y214890D01*
X410035Y214843D01*
X410122Y214793D01*
X410208Y214739D01*
X410291Y214682D01*
X410371Y214622D01*
X410450Y214559D01*
X410526Y214492D01*
X410599Y214423D01*
X410669Y214351D01*
X410737Y214277D01*
X410802Y214200D01*
X410863Y214120D01*
X410922Y214038D01*
X410977Y213954D01*
X411029Y213868D01*
X411078Y213780D01*
X411123Y213690D01*
X411165Y213598D01*
X411203Y213505D01*
X411237Y213410D01*
X411268Y213315D01*
X411295Y213218D01*
X411318Y213120D01*
X411338Y213021D01*
X411353Y212921D01*
X411365Y212821D01*
X411373Y212721D01*
X411377Y212620D01*
X411377Y212520D01*
X411373Y212419D01*
X411365Y212319D01*
X411353Y212219D01*
X411338Y212119D01*
X411318Y212020D01*
X411295Y211922D01*
X411268Y211825D01*
X411237Y211730D01*
X411203Y211635D01*
X411165Y211542D01*
X411123Y211450D01*
X411078Y211360D01*
X411029Y211272D01*
X410977Y211186D01*
X410922Y211102D01*
X410863Y211020D01*
X410802Y210940D01*
X410737Y210863D01*
X410669Y210789D01*
X410599Y210717D01*
X410526Y210648D01*
X410450Y210581D01*
X410371Y210518D01*
X410291Y210458D01*
X410208Y210401D01*
X410122Y210347D01*
X410035Y210297D01*
X409946Y210250D01*
X409855Y210207D01*
X409763Y210167D01*
X409669Y210131D01*
X409574Y210098D01*
X409477Y210069D01*
X409380Y210044D01*
X409281Y210023D01*
X409182Y210005D01*
X409082Y209992D01*
X408982Y209982D01*
X408882Y209976D01*
X408781Y209974D01*
X408781Y209973D02*
X406185Y209973D01*
X206842Y331524D02*
X206842Y334770D01*
X206840Y334883D01*
X206834Y334996D01*
X206824Y335109D01*
X206810Y335222D01*
X206793Y335334D01*
X206771Y335445D01*
X206746Y335555D01*
X206716Y335665D01*
X206683Y335773D01*
X206646Y335880D01*
X206606Y335986D01*
X206561Y336090D01*
X206513Y336193D01*
X206462Y336294D01*
X206407Y336393D01*
X206349Y336490D01*
X206287Y336585D01*
X206222Y336678D01*
X206154Y336768D01*
X206083Y336856D01*
X206008Y336942D01*
X205931Y337025D01*
X205851Y337105D01*
X205768Y337182D01*
X205682Y337257D01*
X205594Y337328D01*
X205504Y337396D01*
X205411Y337461D01*
X205316Y337523D01*
X205219Y337581D01*
X205120Y337636D01*
X205019Y337687D01*
X204916Y337735D01*
X204812Y337780D01*
X204706Y337820D01*
X204599Y337857D01*
X204491Y337890D01*
X204381Y337920D01*
X204271Y337945D01*
X204160Y337967D01*
X204048Y337984D01*
X203935Y337998D01*
X203822Y338008D01*
X203709Y338014D01*
X203596Y338016D01*
X203483Y338014D01*
X203370Y338008D01*
X203257Y337998D01*
X203144Y337984D01*
X203032Y337967D01*
X202921Y337945D01*
X202811Y337920D01*
X202701Y337890D01*
X202593Y337857D01*
X202486Y337820D01*
X202380Y337780D01*
X202276Y337735D01*
X202173Y337687D01*
X202072Y337636D01*
X201973Y337581D01*
X201876Y337523D01*
X201781Y337461D01*
X201688Y337396D01*
X201598Y337328D01*
X201510Y337257D01*
X201424Y337182D01*
X201341Y337105D01*
X201261Y337025D01*
X201184Y336942D01*
X201109Y336856D01*
X201038Y336768D01*
X200970Y336678D01*
X200905Y336585D01*
X200843Y336490D01*
X200785Y336393D01*
X200730Y336294D01*
X200679Y336193D01*
X200631Y336090D01*
X200586Y335986D01*
X200546Y335880D01*
X200509Y335773D01*
X200476Y335665D01*
X200446Y335555D01*
X200421Y335445D01*
X200399Y335334D01*
X200382Y335222D01*
X200368Y335109D01*
X200358Y334996D01*
X200352Y334883D01*
X200350Y334770D01*
X195158Y335419D02*
X195158Y331524D01*
X195158Y335419D02*
X195160Y335520D01*
X195166Y335620D01*
X195176Y335720D01*
X195189Y335820D01*
X195207Y335919D01*
X195228Y336018D01*
X195253Y336115D01*
X195282Y336212D01*
X195315Y336307D01*
X195351Y336401D01*
X195391Y336493D01*
X195434Y336584D01*
X195481Y336673D01*
X195531Y336760D01*
X195585Y336846D01*
X195642Y336929D01*
X195702Y337009D01*
X195765Y337088D01*
X195832Y337164D01*
X195901Y337237D01*
X195973Y337307D01*
X196047Y337375D01*
X196124Y337440D01*
X196204Y337501D01*
X196286Y337560D01*
X196370Y337615D01*
X196456Y337667D01*
X196544Y337716D01*
X196634Y337761D01*
X196726Y337803D01*
X196819Y337841D01*
X196914Y337875D01*
X197009Y337906D01*
X197106Y337933D01*
X197204Y337956D01*
X197303Y337976D01*
X197403Y337991D01*
X197503Y338003D01*
X197603Y338011D01*
X197704Y338015D01*
X197804Y338015D01*
X197905Y338011D01*
X198005Y338003D01*
X198105Y337991D01*
X198205Y337976D01*
X198304Y337956D01*
X198402Y337933D01*
X198499Y337906D01*
X198594Y337875D01*
X198689Y337841D01*
X198782Y337803D01*
X198874Y337761D01*
X198964Y337716D01*
X199052Y337667D01*
X199138Y337615D01*
X199222Y337560D01*
X199304Y337501D01*
X199384Y337440D01*
X199461Y337375D01*
X199535Y337307D01*
X199607Y337237D01*
X199676Y337164D01*
X199743Y337088D01*
X199806Y337009D01*
X199866Y336929D01*
X199923Y336846D01*
X199977Y336760D01*
X200027Y336673D01*
X200074Y336584D01*
X200117Y336493D01*
X200157Y336401D01*
X200193Y336307D01*
X200226Y336212D01*
X200255Y336115D01*
X200280Y336018D01*
X200301Y335919D01*
X200319Y335820D01*
X200332Y335720D01*
X200342Y335620D01*
X200348Y335520D01*
X200350Y335419D01*
X200351Y335419D02*
X200351Y332823D01*
X195158Y342305D02*
X206842Y346200D01*
X195158Y350095D01*
X206842Y354384D02*
X206842Y357630D01*
X206840Y357743D01*
X206834Y357856D01*
X206824Y357969D01*
X206810Y358082D01*
X206793Y358194D01*
X206771Y358305D01*
X206746Y358415D01*
X206716Y358525D01*
X206683Y358633D01*
X206646Y358740D01*
X206606Y358846D01*
X206561Y358950D01*
X206513Y359053D01*
X206462Y359154D01*
X206407Y359253D01*
X206349Y359350D01*
X206287Y359445D01*
X206222Y359538D01*
X206154Y359628D01*
X206083Y359716D01*
X206008Y359802D01*
X205931Y359885D01*
X205851Y359965D01*
X205768Y360042D01*
X205682Y360117D01*
X205594Y360188D01*
X205504Y360256D01*
X205411Y360321D01*
X205316Y360383D01*
X205219Y360441D01*
X205120Y360496D01*
X205019Y360547D01*
X204916Y360595D01*
X204812Y360640D01*
X204706Y360680D01*
X204599Y360717D01*
X204491Y360750D01*
X204381Y360780D01*
X204271Y360805D01*
X204160Y360827D01*
X204048Y360844D01*
X203935Y360858D01*
X203822Y360868D01*
X203709Y360874D01*
X203596Y360876D01*
X203483Y360874D01*
X203370Y360868D01*
X203257Y360858D01*
X203144Y360844D01*
X203032Y360827D01*
X202921Y360805D01*
X202811Y360780D01*
X202701Y360750D01*
X202593Y360717D01*
X202486Y360680D01*
X202380Y360640D01*
X202276Y360595D01*
X202173Y360547D01*
X202072Y360496D01*
X201973Y360441D01*
X201876Y360383D01*
X201781Y360321D01*
X201688Y360256D01*
X201598Y360188D01*
X201510Y360117D01*
X201424Y360042D01*
X201341Y359965D01*
X201261Y359885D01*
X201184Y359802D01*
X201109Y359716D01*
X201038Y359628D01*
X200970Y359538D01*
X200905Y359445D01*
X200843Y359350D01*
X200785Y359253D01*
X200730Y359154D01*
X200679Y359053D01*
X200631Y358950D01*
X200586Y358846D01*
X200546Y358740D01*
X200509Y358633D01*
X200476Y358525D01*
X200446Y358415D01*
X200421Y358305D01*
X200399Y358194D01*
X200382Y358082D01*
X200368Y357969D01*
X200358Y357856D01*
X200352Y357743D01*
X200350Y357630D01*
X195158Y358279D02*
X195158Y354384D01*
X195158Y358279D02*
X195160Y358380D01*
X195166Y358480D01*
X195176Y358580D01*
X195189Y358680D01*
X195207Y358779D01*
X195228Y358878D01*
X195253Y358975D01*
X195282Y359072D01*
X195315Y359167D01*
X195351Y359261D01*
X195391Y359353D01*
X195434Y359444D01*
X195481Y359533D01*
X195531Y359620D01*
X195585Y359706D01*
X195642Y359789D01*
X195702Y359869D01*
X195765Y359948D01*
X195832Y360024D01*
X195901Y360097D01*
X195973Y360167D01*
X196047Y360235D01*
X196124Y360300D01*
X196204Y360361D01*
X196286Y360420D01*
X196370Y360475D01*
X196456Y360527D01*
X196544Y360576D01*
X196634Y360621D01*
X196726Y360663D01*
X196819Y360701D01*
X196914Y360735D01*
X197009Y360766D01*
X197106Y360793D01*
X197204Y360816D01*
X197303Y360836D01*
X197403Y360851D01*
X197503Y360863D01*
X197603Y360871D01*
X197704Y360875D01*
X197804Y360875D01*
X197905Y360871D01*
X198005Y360863D01*
X198105Y360851D01*
X198205Y360836D01*
X198304Y360816D01*
X198402Y360793D01*
X198499Y360766D01*
X198594Y360735D01*
X198689Y360701D01*
X198782Y360663D01*
X198874Y360621D01*
X198964Y360576D01*
X199052Y360527D01*
X199138Y360475D01*
X199222Y360420D01*
X199304Y360361D01*
X199384Y360300D01*
X199461Y360235D01*
X199535Y360167D01*
X199607Y360097D01*
X199676Y360024D01*
X199743Y359948D01*
X199806Y359869D01*
X199866Y359789D01*
X199923Y359706D01*
X199977Y359620D01*
X200027Y359533D01*
X200074Y359444D01*
X200117Y359353D01*
X200157Y359261D01*
X200193Y359167D01*
X200226Y359072D01*
X200255Y358975D01*
X200280Y358878D01*
X200301Y358779D01*
X200319Y358680D01*
X200332Y358580D01*
X200342Y358480D01*
X200348Y358380D01*
X200350Y358279D01*
X200351Y358279D02*
X200351Y355683D01*
X280006Y477234D02*
X283252Y477234D01*
X283365Y477236D01*
X283478Y477242D01*
X283591Y477252D01*
X283704Y477266D01*
X283816Y477283D01*
X283927Y477305D01*
X284037Y477330D01*
X284147Y477360D01*
X284255Y477393D01*
X284362Y477430D01*
X284468Y477470D01*
X284572Y477515D01*
X284675Y477563D01*
X284776Y477614D01*
X284875Y477669D01*
X284972Y477727D01*
X285067Y477789D01*
X285160Y477854D01*
X285250Y477922D01*
X285338Y477993D01*
X285424Y478068D01*
X285507Y478145D01*
X285587Y478225D01*
X285664Y478308D01*
X285739Y478394D01*
X285810Y478482D01*
X285878Y478572D01*
X285943Y478665D01*
X286005Y478760D01*
X286063Y478857D01*
X286118Y478956D01*
X286169Y479057D01*
X286217Y479160D01*
X286262Y479264D01*
X286302Y479370D01*
X286339Y479477D01*
X286372Y479585D01*
X286402Y479695D01*
X286427Y479805D01*
X286449Y479916D01*
X286466Y480028D01*
X286480Y480141D01*
X286490Y480254D01*
X286496Y480367D01*
X286498Y480480D01*
X286496Y480593D01*
X286490Y480706D01*
X286480Y480819D01*
X286466Y480932D01*
X286449Y481044D01*
X286427Y481155D01*
X286402Y481265D01*
X286372Y481375D01*
X286339Y481483D01*
X286302Y481590D01*
X286262Y481696D01*
X286217Y481800D01*
X286169Y481903D01*
X286118Y482004D01*
X286063Y482103D01*
X286005Y482200D01*
X285943Y482295D01*
X285878Y482388D01*
X285810Y482478D01*
X285739Y482566D01*
X285664Y482652D01*
X285587Y482735D01*
X285507Y482815D01*
X285424Y482892D01*
X285338Y482967D01*
X285250Y483038D01*
X285160Y483106D01*
X285067Y483171D01*
X284972Y483233D01*
X284875Y483291D01*
X284776Y483346D01*
X284675Y483397D01*
X284572Y483445D01*
X284468Y483490D01*
X284362Y483530D01*
X284255Y483567D01*
X284147Y483600D01*
X284037Y483630D01*
X283927Y483655D01*
X283816Y483677D01*
X283704Y483694D01*
X283591Y483708D01*
X283478Y483718D01*
X283365Y483724D01*
X283252Y483726D01*
X283901Y488918D02*
X280006Y488918D01*
X283901Y488918D02*
X284002Y488916D01*
X284102Y488910D01*
X284202Y488900D01*
X284302Y488887D01*
X284401Y488869D01*
X284500Y488848D01*
X284597Y488823D01*
X284694Y488794D01*
X284789Y488761D01*
X284883Y488725D01*
X284975Y488685D01*
X285066Y488642D01*
X285155Y488595D01*
X285242Y488545D01*
X285328Y488491D01*
X285411Y488434D01*
X285491Y488374D01*
X285570Y488311D01*
X285646Y488244D01*
X285719Y488175D01*
X285789Y488103D01*
X285857Y488029D01*
X285922Y487952D01*
X285983Y487872D01*
X286042Y487790D01*
X286097Y487706D01*
X286149Y487620D01*
X286198Y487532D01*
X286243Y487442D01*
X286285Y487350D01*
X286323Y487257D01*
X286357Y487162D01*
X286388Y487067D01*
X286415Y486970D01*
X286438Y486872D01*
X286458Y486773D01*
X286473Y486673D01*
X286485Y486573D01*
X286493Y486473D01*
X286497Y486372D01*
X286497Y486272D01*
X286493Y486171D01*
X286485Y486071D01*
X286473Y485971D01*
X286458Y485871D01*
X286438Y485772D01*
X286415Y485674D01*
X286388Y485577D01*
X286357Y485482D01*
X286323Y485387D01*
X286285Y485294D01*
X286243Y485202D01*
X286198Y485112D01*
X286149Y485024D01*
X286097Y484938D01*
X286042Y484854D01*
X285983Y484772D01*
X285922Y484692D01*
X285857Y484615D01*
X285789Y484541D01*
X285719Y484469D01*
X285646Y484400D01*
X285570Y484333D01*
X285491Y484270D01*
X285411Y484210D01*
X285328Y484153D01*
X285242Y484099D01*
X285155Y484049D01*
X285066Y484002D01*
X284975Y483959D01*
X284883Y483919D01*
X284789Y483883D01*
X284694Y483850D01*
X284597Y483821D01*
X284500Y483796D01*
X284401Y483775D01*
X284302Y483757D01*
X284202Y483744D01*
X284102Y483734D01*
X284002Y483728D01*
X283901Y483726D01*
X283901Y483725D02*
X281305Y483725D01*
X290787Y488918D02*
X294682Y477234D01*
X298577Y488918D01*
X302866Y477234D02*
X306112Y477234D01*
X306225Y477236D01*
X306338Y477242D01*
X306451Y477252D01*
X306564Y477266D01*
X306676Y477283D01*
X306787Y477305D01*
X306897Y477330D01*
X307007Y477360D01*
X307115Y477393D01*
X307222Y477430D01*
X307328Y477470D01*
X307432Y477515D01*
X307535Y477563D01*
X307636Y477614D01*
X307735Y477669D01*
X307832Y477727D01*
X307927Y477789D01*
X308020Y477854D01*
X308110Y477922D01*
X308198Y477993D01*
X308284Y478068D01*
X308367Y478145D01*
X308447Y478225D01*
X308524Y478308D01*
X308599Y478394D01*
X308670Y478482D01*
X308738Y478572D01*
X308803Y478665D01*
X308865Y478760D01*
X308923Y478857D01*
X308978Y478956D01*
X309029Y479057D01*
X309077Y479160D01*
X309122Y479264D01*
X309162Y479370D01*
X309199Y479477D01*
X309232Y479585D01*
X309262Y479695D01*
X309287Y479805D01*
X309309Y479916D01*
X309326Y480028D01*
X309340Y480141D01*
X309350Y480254D01*
X309356Y480367D01*
X309358Y480480D01*
X309356Y480593D01*
X309350Y480706D01*
X309340Y480819D01*
X309326Y480932D01*
X309309Y481044D01*
X309287Y481155D01*
X309262Y481265D01*
X309232Y481375D01*
X309199Y481483D01*
X309162Y481590D01*
X309122Y481696D01*
X309077Y481800D01*
X309029Y481903D01*
X308978Y482004D01*
X308923Y482103D01*
X308865Y482200D01*
X308803Y482295D01*
X308738Y482388D01*
X308670Y482478D01*
X308599Y482566D01*
X308524Y482652D01*
X308447Y482735D01*
X308367Y482815D01*
X308284Y482892D01*
X308198Y482967D01*
X308110Y483038D01*
X308020Y483106D01*
X307927Y483171D01*
X307832Y483233D01*
X307735Y483291D01*
X307636Y483346D01*
X307535Y483397D01*
X307432Y483445D01*
X307328Y483490D01*
X307222Y483530D01*
X307115Y483567D01*
X307007Y483600D01*
X306897Y483630D01*
X306787Y483655D01*
X306676Y483677D01*
X306564Y483694D01*
X306451Y483708D01*
X306338Y483718D01*
X306225Y483724D01*
X306112Y483726D01*
X306761Y488918D02*
X302866Y488918D01*
X306761Y488918D02*
X306862Y488916D01*
X306962Y488910D01*
X307062Y488900D01*
X307162Y488887D01*
X307261Y488869D01*
X307360Y488848D01*
X307457Y488823D01*
X307554Y488794D01*
X307649Y488761D01*
X307743Y488725D01*
X307835Y488685D01*
X307926Y488642D01*
X308015Y488595D01*
X308102Y488545D01*
X308188Y488491D01*
X308271Y488434D01*
X308351Y488374D01*
X308430Y488311D01*
X308506Y488244D01*
X308579Y488175D01*
X308649Y488103D01*
X308717Y488029D01*
X308782Y487952D01*
X308843Y487872D01*
X308902Y487790D01*
X308957Y487706D01*
X309009Y487620D01*
X309058Y487532D01*
X309103Y487442D01*
X309145Y487350D01*
X309183Y487257D01*
X309217Y487162D01*
X309248Y487067D01*
X309275Y486970D01*
X309298Y486872D01*
X309318Y486773D01*
X309333Y486673D01*
X309345Y486573D01*
X309353Y486473D01*
X309357Y486372D01*
X309357Y486272D01*
X309353Y486171D01*
X309345Y486071D01*
X309333Y485971D01*
X309318Y485871D01*
X309298Y485772D01*
X309275Y485674D01*
X309248Y485577D01*
X309217Y485482D01*
X309183Y485387D01*
X309145Y485294D01*
X309103Y485202D01*
X309058Y485112D01*
X309009Y485024D01*
X308957Y484938D01*
X308902Y484854D01*
X308843Y484772D01*
X308782Y484692D01*
X308717Y484615D01*
X308649Y484541D01*
X308579Y484469D01*
X308506Y484400D01*
X308430Y484333D01*
X308351Y484270D01*
X308271Y484210D01*
X308188Y484153D01*
X308102Y484099D01*
X308015Y484049D01*
X307926Y484002D01*
X307835Y483959D01*
X307743Y483919D01*
X307649Y483883D01*
X307554Y483850D01*
X307457Y483821D01*
X307360Y483796D01*
X307261Y483775D01*
X307162Y483757D01*
X307062Y483744D01*
X306962Y483734D01*
X306862Y483728D01*
X306761Y483726D01*
X306761Y483725D02*
X304165Y483725D01*
X283926Y204438D02*
X280680Y204438D01*
X283926Y204438D02*
X284039Y204440D01*
X284152Y204446D01*
X284265Y204456D01*
X284378Y204470D01*
X284490Y204487D01*
X284601Y204509D01*
X284711Y204534D01*
X284821Y204564D01*
X284929Y204597D01*
X285036Y204634D01*
X285142Y204674D01*
X285246Y204719D01*
X285349Y204767D01*
X285450Y204818D01*
X285549Y204873D01*
X285646Y204931D01*
X285741Y204993D01*
X285834Y205058D01*
X285924Y205126D01*
X286012Y205197D01*
X286098Y205272D01*
X286181Y205349D01*
X286261Y205429D01*
X286338Y205512D01*
X286413Y205598D01*
X286484Y205686D01*
X286552Y205776D01*
X286617Y205869D01*
X286679Y205964D01*
X286737Y206061D01*
X286792Y206160D01*
X286843Y206261D01*
X286891Y206364D01*
X286936Y206468D01*
X286976Y206574D01*
X287013Y206681D01*
X287046Y206789D01*
X287076Y206899D01*
X287101Y207009D01*
X287123Y207120D01*
X287140Y207232D01*
X287154Y207345D01*
X287164Y207458D01*
X287170Y207571D01*
X287172Y207684D01*
X287170Y207797D01*
X287164Y207910D01*
X287154Y208023D01*
X287140Y208136D01*
X287123Y208248D01*
X287101Y208359D01*
X287076Y208469D01*
X287046Y208579D01*
X287013Y208687D01*
X286976Y208794D01*
X286936Y208900D01*
X286891Y209004D01*
X286843Y209107D01*
X286792Y209208D01*
X286737Y209307D01*
X286679Y209404D01*
X286617Y209499D01*
X286552Y209592D01*
X286484Y209682D01*
X286413Y209770D01*
X286338Y209856D01*
X286261Y209939D01*
X286181Y210019D01*
X286098Y210096D01*
X286012Y210171D01*
X285924Y210242D01*
X285834Y210310D01*
X285741Y210375D01*
X285646Y210437D01*
X285549Y210495D01*
X285450Y210550D01*
X285349Y210601D01*
X285246Y210649D01*
X285142Y210694D01*
X285036Y210734D01*
X284929Y210771D01*
X284821Y210804D01*
X284711Y210834D01*
X284601Y210859D01*
X284490Y210881D01*
X284378Y210898D01*
X284265Y210912D01*
X284152Y210922D01*
X284039Y210928D01*
X283926Y210930D01*
X284575Y216122D02*
X280680Y216122D01*
X284575Y216122D02*
X284676Y216120D01*
X284776Y216114D01*
X284876Y216104D01*
X284976Y216091D01*
X285075Y216073D01*
X285174Y216052D01*
X285271Y216027D01*
X285368Y215998D01*
X285463Y215965D01*
X285557Y215929D01*
X285649Y215889D01*
X285740Y215846D01*
X285829Y215799D01*
X285916Y215749D01*
X286002Y215695D01*
X286085Y215638D01*
X286165Y215578D01*
X286244Y215515D01*
X286320Y215448D01*
X286393Y215379D01*
X286463Y215307D01*
X286531Y215233D01*
X286596Y215156D01*
X286657Y215076D01*
X286716Y214994D01*
X286771Y214910D01*
X286823Y214824D01*
X286872Y214736D01*
X286917Y214646D01*
X286959Y214554D01*
X286997Y214461D01*
X287031Y214366D01*
X287062Y214271D01*
X287089Y214174D01*
X287112Y214076D01*
X287132Y213977D01*
X287147Y213877D01*
X287159Y213777D01*
X287167Y213677D01*
X287171Y213576D01*
X287171Y213476D01*
X287167Y213375D01*
X287159Y213275D01*
X287147Y213175D01*
X287132Y213075D01*
X287112Y212976D01*
X287089Y212878D01*
X287062Y212781D01*
X287031Y212686D01*
X286997Y212591D01*
X286959Y212498D01*
X286917Y212406D01*
X286872Y212316D01*
X286823Y212228D01*
X286771Y212142D01*
X286716Y212058D01*
X286657Y211976D01*
X286596Y211896D01*
X286531Y211819D01*
X286463Y211745D01*
X286393Y211673D01*
X286320Y211604D01*
X286244Y211537D01*
X286165Y211474D01*
X286085Y211414D01*
X286002Y211357D01*
X285916Y211303D01*
X285829Y211253D01*
X285740Y211206D01*
X285649Y211163D01*
X285557Y211123D01*
X285463Y211087D01*
X285368Y211054D01*
X285271Y211025D01*
X285174Y211000D01*
X285075Y210979D01*
X284976Y210961D01*
X284876Y210948D01*
X284776Y210938D01*
X284676Y210932D01*
X284575Y210930D01*
X284575Y210929D02*
X281979Y210929D01*
X291461Y216122D02*
X295356Y204438D01*
X299251Y216122D01*
X303540Y204438D02*
X306786Y204438D01*
X306899Y204440D01*
X307012Y204446D01*
X307125Y204456D01*
X307238Y204470D01*
X307350Y204487D01*
X307461Y204509D01*
X307571Y204534D01*
X307681Y204564D01*
X307789Y204597D01*
X307896Y204634D01*
X308002Y204674D01*
X308106Y204719D01*
X308209Y204767D01*
X308310Y204818D01*
X308409Y204873D01*
X308506Y204931D01*
X308601Y204993D01*
X308694Y205058D01*
X308784Y205126D01*
X308872Y205197D01*
X308958Y205272D01*
X309041Y205349D01*
X309121Y205429D01*
X309198Y205512D01*
X309273Y205598D01*
X309344Y205686D01*
X309412Y205776D01*
X309477Y205869D01*
X309539Y205964D01*
X309597Y206061D01*
X309652Y206160D01*
X309703Y206261D01*
X309751Y206364D01*
X309796Y206468D01*
X309836Y206574D01*
X309873Y206681D01*
X309906Y206789D01*
X309936Y206899D01*
X309961Y207009D01*
X309983Y207120D01*
X310000Y207232D01*
X310014Y207345D01*
X310024Y207458D01*
X310030Y207571D01*
X310032Y207684D01*
X310030Y207797D01*
X310024Y207910D01*
X310014Y208023D01*
X310000Y208136D01*
X309983Y208248D01*
X309961Y208359D01*
X309936Y208469D01*
X309906Y208579D01*
X309873Y208687D01*
X309836Y208794D01*
X309796Y208900D01*
X309751Y209004D01*
X309703Y209107D01*
X309652Y209208D01*
X309597Y209307D01*
X309539Y209404D01*
X309477Y209499D01*
X309412Y209592D01*
X309344Y209682D01*
X309273Y209770D01*
X309198Y209856D01*
X309121Y209939D01*
X309041Y210019D01*
X308958Y210096D01*
X308872Y210171D01*
X308784Y210242D01*
X308694Y210310D01*
X308601Y210375D01*
X308506Y210437D01*
X308409Y210495D01*
X308310Y210550D01*
X308209Y210601D01*
X308106Y210649D01*
X308002Y210694D01*
X307896Y210734D01*
X307789Y210771D01*
X307681Y210804D01*
X307571Y210834D01*
X307461Y210859D01*
X307350Y210881D01*
X307238Y210898D01*
X307125Y210912D01*
X307012Y210922D01*
X306899Y210928D01*
X306786Y210930D01*
X307435Y216122D02*
X303540Y216122D01*
X307435Y216122D02*
X307536Y216120D01*
X307636Y216114D01*
X307736Y216104D01*
X307836Y216091D01*
X307935Y216073D01*
X308034Y216052D01*
X308131Y216027D01*
X308228Y215998D01*
X308323Y215965D01*
X308417Y215929D01*
X308509Y215889D01*
X308600Y215846D01*
X308689Y215799D01*
X308776Y215749D01*
X308862Y215695D01*
X308945Y215638D01*
X309025Y215578D01*
X309104Y215515D01*
X309180Y215448D01*
X309253Y215379D01*
X309323Y215307D01*
X309391Y215233D01*
X309456Y215156D01*
X309517Y215076D01*
X309576Y214994D01*
X309631Y214910D01*
X309683Y214824D01*
X309732Y214736D01*
X309777Y214646D01*
X309819Y214554D01*
X309857Y214461D01*
X309891Y214366D01*
X309922Y214271D01*
X309949Y214174D01*
X309972Y214076D01*
X309992Y213977D01*
X310007Y213877D01*
X310019Y213777D01*
X310027Y213677D01*
X310031Y213576D01*
X310031Y213476D01*
X310027Y213375D01*
X310019Y213275D01*
X310007Y213175D01*
X309992Y213075D01*
X309972Y212976D01*
X309949Y212878D01*
X309922Y212781D01*
X309891Y212686D01*
X309857Y212591D01*
X309819Y212498D01*
X309777Y212406D01*
X309732Y212316D01*
X309683Y212228D01*
X309631Y212142D01*
X309576Y212058D01*
X309517Y211976D01*
X309456Y211896D01*
X309391Y211819D01*
X309323Y211745D01*
X309253Y211673D01*
X309180Y211604D01*
X309104Y211537D01*
X309025Y211474D01*
X308945Y211414D01*
X308862Y211357D01*
X308776Y211303D01*
X308689Y211253D01*
X308600Y211206D01*
X308509Y211163D01*
X308417Y211123D01*
X308323Y211087D01*
X308228Y211054D01*
X308131Y211025D01*
X308034Y211000D01*
X307935Y210979D01*
X307836Y210961D01*
X307736Y210948D01*
X307636Y210938D01*
X307536Y210932D01*
X307435Y210930D01*
X307435Y210929D02*
X304839Y210929D01*
M02*
